<svg xmlns="http://www.w3.org/2000/svg" width="20" height="20" viewBox="0 0 20 20">
  <defs>
    <style>
      .cls-1 {
        fill: none;
      }

      .cls-2 {
        fill: #222;
      }
    </style>
  </defs>
  <g id="instagram" transform="translate(-1444 -6874)">
    <rect id="사각형_3544" data-name="사각형 3544" class="cls-1" width="20" height="20" transform="translate(1444 6874)"/>
    <g id="그룹_7395" data-name="그룹 7395" transform="translate(1446.499 6876.5)">
      <path id="패스_3593" data-name="패스 3593" class="cls-2" d="M104.235,108H97.893a4.329,4.329,0,0,0-4.329,4.329v6.342A4.328,4.328,0,0,0,97.893,123h6.342a4.327,4.327,0,0,0,4.329-4.329V112.33A4.328,4.328,0,0,0,104.235,108m2.948,10.783a2.876,2.876,0,0,1-2.874,2.875h-6.49a2.877,2.877,0,0,1-2.874-2.875v-6.49a2.875,2.875,0,0,1,2.874-2.874h6.49a2.875,2.875,0,0,1,2.874,2.874Z" transform="translate(-93.564 -108.001)"/>
      <path id="패스_3594" data-name="패스 3594" class="cls-2" d="M110.751,121.586a3.741,3.741,0,1,0,3.742,3.742,3.74,3.74,0,0,0-3.742-3.742m0,6.166a2.425,2.425,0,1,1,2.425-2.424,2.424,2.424,0,0,1-2.425,2.424" transform="translate(-103.251 -117.788)"/>
      <path id="패스_3595" data-name="패스 3595" class="cls-2" d="M134.085,117.653a.958.958,0,1,0,.957.957.958.958,0,0,0-.957-.957" transform="translate(-122.594 -115.083)"/>
    </g>
  </g>
</svg>
