<svg xmlns="http://www.w3.org/2000/svg" width="30" height="32" viewBox="0 0 30 32">
    <defs>
        <clipPath id="0txflyg6fa">
            <path data-name="사각형 3011" style="fill:none" d="M0 0h30v32H0z"/>
        </clipPath>
    </defs>
    <g data-name="그룹 6914" style="clip-path:url(#0txflyg6fa)">
        <path data-name="패스 21706" d="M30 9.091a5.839 5.839 0 0 0-3.05-5.131v5.09l-2.789 1.61-2.787-1.61V3.96a5.836 5.836 0 0 0-3.051 5.131c0 2.309.283 4.3 2.231 5.248 0 0 .953.46.953.707V29.3a2.655 2.655 0 1 0 5.309 0V15.045c0-.246.953-.707.953-.707C29.716 13.393 30 11.4 30 9.091" style="fill:#ffeaf0"/>
        <path data-name="패스 21707" d="M18.388 10.648a16.207 16.207 0 0 1-.068-1.557 5.852 5.852 0 0 1 .266-1.728c-.047-.009-.094-.026-.141-.034h.035l-.625-1.866a.5.5 0 0 0-.472-.348h-1.932a.5.5 0 0 0-.472.348l-.519 1.854a10.775 10.775 0 0 0-4.1 1.672h.005L8.6 8.106a.494.494 0 0 0-.579.09L6.657 9.562a.5.5 0 0 0-.089.577l.944 1.675A10.735 10.735 0 0 0 5.8 15.926v-.035l-1.865.623a.5.5 0 0 0-.352.471v1.931a.5.5 0 0 0 .347.474l1.855.518a10.762 10.762 0 0 0 1.668 4.1l-.879 1.76a.5.5 0 0 0 .089.577l1.367 1.366a.494.494 0 0 0 .579.09l1.676-.943a10.736 10.736 0 0 0 4.11 1.717h-.035l.624 1.866a.5.5 0 0 0 .472.348h1.932a.5.5 0 0 0 .472-.348l.52-1.854A10.85 10.85 0 0 0 21.5 27.5v-3.945a7.571 7.571 0 1 1-8.179-12.516" style="fill:#ffeaf0"/>
        <path data-name="패스 21708" d="M27.169 5.881A5.839 5.839 0 0 0 24.119.75v5.09L21.33 7.45l-2.787-1.61V.75a5.836 5.836 0 0 0-3.051 5.131c0 2.309.283 4.3 2.231 5.248 0 0 .953.46.953.707v14.249a2.655 2.655 0 1 0 5.309 0v-14.25c0-.246.953-.707.953-.707 1.947-.945 2.231-2.936 2.231-5.247z" style="stroke:#313131;stroke-linecap:round;stroke-linejoin:round;stroke-width:1.5px;fill:none"/>
        <path data-name="패스 21709" d="M15.557 7.438a16.28 16.28 0 0 1-.068-1.557 5.852 5.852 0 0 1 .266-1.728c-.047-.009-.094-.026-.141-.034h.035l-.625-1.866a.5.5 0 0 0-.472-.348H12.62a.5.5 0 0 0-.472.348l-.519 1.854a10.775 10.775 0 0 0-4.1 1.672h.005L5.772 4.9a.494.494 0 0 0-.579.09L3.826 6.352a.5.5 0 0 0-.089.577L4.681 8.6a10.735 10.735 0 0 0-1.714 4.112v-.035L1.1 13.3a.5.5 0 0 0-.352.471v1.931a.5.5 0 0 0 .347.474l1.855.518A10.762 10.762 0 0 0 4.62 20.8h0l-.879 1.76a.5.5 0 0 0 .089.577L5.193 24.5a.494.494 0 0 0 .579.09l1.676-.943a10.736 10.736 0 0 0 4.11 1.717h-.035l.624 1.866a.5.5 0 0 0 .472.348h1.932a.5.5 0 0 0 .472-.348l.52-1.854a10.85 10.85 0 0 0 3.13-1.087v-3.944a7.571 7.571 0 1 1-8.179-12.516" style="stroke:#313131;stroke-linecap:round;stroke-linejoin:round;stroke-width:1.5px;fill:none"/>
    </g>
</svg>
