<svg xmlns="http://www.w3.org/2000/svg" width="120" height="24" viewBox="0 0 120 24">
    <defs>
        <clipPath id="wfjaskpnxa">
            <path data-name="사각형 3026" style="fill:#e4007f" d="M0 0h55v24H0z"/>
        </clipPath>
        <clipPath id="qwt8w3ni5b">
            <path data-name="사각형 3028" transform="translate(.333)" style="fill:none" d="M0 0h61v24H0z"/>
        </clipPath>
    </defs>
    <g data-name="그룹 6976">
        <g data-name="그룹 6975" style="clip-path:url(#wfjaskpnxa)">
            <path data-name="패스 1024" d="M12 50.024v-6a6 6 0 0 1-6-6H0a12 12 0 0 0 12 12" transform="translate(0 -26.024)" style="fill:#e4007f"/>
            <path data-name="패스 1025" d="M69.035 50.024v-6a6 6 0 0 1-6-6h-6a12 12 0 0 0 12 12" transform="translate(-39.023 -26.024)" style="fill:#e4007f"/>
            <path data-name="패스 1026" d="M107.053 50.024v-6a6 6 0 0 1-6-6h-6a12 12 0 0 0 12 12" transform="translate(-65.036 -26.024)" style="fill:#e4007f"/>
            <path data-name="패스 1027" d="M145.073 38.018h-6a6 6 0 0 1-6 6v6a12 12 0 0 0 12-12" transform="translate(-91.052 -26.023)" style="fill:#e4007f"/>
            <path data-name="패스 1028" d="M133.069 0v6a6 6 0 0 1 6 6h6a12 12 0 0 0-12-12" transform="translate(-91.052 -.01)" style="fill:#e4007f"/>
            <path data-name="패스 1029" d="M0 0v6a6 6 0 0 1 6 6h6A12 12 0 0 0 0 0" transform="translate(0 -.01)" style="fill:#e4007f"/>
            <path data-name="패스 1030" d="M38.02 0v6a6 6 0 0 1 6 6h6a12 12 0 0 0-12-12" transform="translate(-26.015 -.01)" style="fill:#e4007f"/>
            <path data-name="패스 1031" d="M95.049 12h6a6 6 0 0 1 6-6V0a12 12 0 0 0-12 12" transform="translate(-65.037 -.01)" style="fill:#e4007f"/>
            <path data-name="패스 1032" d="M6.054 26.621a1.476 1.476 0 1 1-1.476-1.476 1.475 1.475 0 0 1 1.476 1.476" transform="translate(-2.123 -17.215)" style="fill:#e4007f"/>
        </g>
    </g>
    <g data-name="그룹 6980">
        <g data-name="그룹 6979" transform="translate(58.667)" style="clip-path:url(#qwt8w3ni5b)">
            <path data-name="패스 1045" d="M19.05 10.2a1.2 1.2 0 0 1 .965.364 1.243 1.243 0 0 1 .312.832 1.277 1.277 0 0 1-.312.859 1.2 1.2 0 0 1-.965.364H1.25a1.167 1.167 0 0 1-.938-.364A1.277 1.277 0 0 1 0 11.4a1.243 1.243 0 0 1 .312-.832 1.167 1.167 0 0 1 .938-.368zm-4.2-5.883a1.261 1.261 0 0 0-.364-1.041 1.431 1.431 0 0 0-.912-.286h-9.8a1.263 1.263 0 0 1-.989-.351 1.3 1.3 0 0 1 0-1.692 1.217 1.217 0 0 1 .994-.374h10.06a4.857 4.857 0 0 1 1.538.234 3.424 3.424 0 0 1 1.224.7 3.255 3.255 0 0 1 .82 1.171 4.075 4.075 0 0 1 .3 1.614 16.248 16.248 0 0 1-.169 2.226q-.17 1.209-.4 2.174a1.241 1.241 0 0 1-.552.808 1.6 1.6 0 0 1-.86.26 1.376 1.376 0 0 1-1.04-.444 1.392 1.392 0 0 1-.26-1.276l.052-.364a3.687 3.687 0 0 1 .078-.39H3.648a1.285 1.285 0 0 1-.99-.338 1.212 1.212 0 0 1-.312-.858 1.164 1.164 0 0 1 .312-.79 1.261 1.261 0 0 1 .99-.351h11.176a1.926 1.926 0 0 0 .026-.313zm2.23 17.216a1.263 1.263 0 0 1 .9.329 1.347 1.347 0 0 1 0 1.816 1.268 1.268 0 0 1-.9.328H6.27a3.723 3.723 0 0 1-1.382-.247 3.326 3.326 0 0 1-1.081-.676 2.938 2.938 0 0 1-.7-1.013 3.127 3.127 0 0 1-.248-1.236 2.947 2.947 0 0 1 .248-1.21 2.89 2.89 0 0 1 .7-.976A3.3 3.3 0 0 1 4.888 18a3.914 3.914 0 0 1 1.382-.234h7.922a.791.791 0 0 0 .586-.221.757.757 0 0 0 .221-.56.6.6 0 0 0-.221-.513.941.941 0 0 0-.586-.169H4.523a1.336 1.336 0 0 1-.9-.3 1.081 1.081 0 0 1-.351-.872 1.163 1.163 0 0 1 .351-.9 1.274 1.274 0 0 1 .9-.326H14.4a3.759 3.759 0 0 1 2.463.781 2.793 2.793 0 0 1 .951 2.291 2.833 2.833 0 0 1-.951 2.3 3.711 3.711 0 0 1-2.463.794H6.478a.831.831 0 0 0-.586.2.7.7 0 0 0-.221.536.656.656 0 0 0 .221.525.87.87 0 0 0 .586.191z" transform="translate(-.644 -.01)" style="fill:#e4007f"/>
            <path data-name="패스 1046" d="M25.27 9.032a1.448 1.448 0 0 0-1.29.642 2.5 2.5 0 0 0 0 2.8 1.45 1.45 0 0 0 1.29.642h5.057a1.068 1.068 0 0 1 .9.386 1.355 1.355 0 0 1 0 1.7 1.068 1.068 0 0 1-.9.386h-5.474a3.822 3.822 0 0 1-3.062-1.4 4.192 4.192 0 0 1-.755-1.432 5.553 5.553 0 0 1 0-3.279 4.192 4.192 0 0 1 .755-1.432 3.827 3.827 0 0 1 3.062-1.411h2.084a1.277 1.277 0 0 0 1.134-.559 2.211 2.211 0 0 0 0-2.473 1.278 1.278 0 0 0-1.134-.559h-4.3a1.115 1.115 0 0 1-.911-.377 1.283 1.283 0 0 1-.312-.846 1.337 1.337 0 0 1 .312-.859 1.1 1.1 0 0 1 .911-.39h4.613a3.834 3.834 0 0 1 1.7.364 3.55 3.55 0 0 1 1.224.963 4.224 4.224 0 0 1 .73 1.367 4.965 4.965 0 0 1 0 3.1 4.077 4.077 0 0 1-.73 1.354 3.621 3.621 0 0 1-1.224.95 3.821 3.821 0 0 1-1.7.364zm10.217 13.482a1.371 1.371 0 0 1-.418 1.093 1.418 1.418 0 0 1-.963.364 1.517 1.517 0 0 1-.99-.364 1.331 1.331 0 0 1-.443-1.093V1.692A1.331 1.331 0 0 1 33.115.6a1.517 1.517 0 0 1 .99-.364 1.418 1.418 0 0 1 .964.364 1.371 1.371 0 0 1 .418 1.093v6.245h2.187v-6.35a1.307 1.307 0 0 1 .461-1.094A1.6 1.6 0 0 1 39.148.13a1.548 1.548 0 0 1 1 .364 1.326 1.326 0 0 1 .452 1.093v20.928a1.328 1.328 0 0 1-.447 1.093 1.537 1.537 0 0 1-1 .364 1.593 1.593 0 0 1-1.013-.364 1.306 1.306 0 0 1-.459-1.093V10.437h-2.19z" transform="translate(-.635 -.01)" style="fill:#e4007f"/>
            <path data-name="패스 1047" d="M45.62 5.6a5.156 5.156 0 0 1 .468-2.187 5.688 5.688 0 0 1 1.291-1.783 5.869 5.869 0 0 1 1.947-1.2A6.971 6.971 0 0 1 51.818 0a7.071 7.071 0 0 1 2.5.429A6 6 0 0 1 56.3 1.63a5.6 5.6 0 0 1 1.3 1.783 5.141 5.141 0 0 1 .474 2.187 5.268 5.268 0 0 1-.338 1.9 5.459 5.459 0 0 1-.965 1.614 5.574 5.574 0 0 1-1.5 1.223 6.965 6.965 0 0 1-1.917.728V13.1H60.7a1.249 1.249 0 0 1 .977.364 1.285 1.285 0 0 1 .325.884 1.188 1.188 0 0 1-1.146 1.228 1.162 1.162 0 0 1-.156-.005H42.957a1.2 1.2 0 0 1-.963-.364 1.272 1.272 0 0 1-.312-.859 1.311 1.311 0 0 1 .312-.884 1.2 1.2 0 0 1 .963-.364h7.375v-2a6.522 6.522 0 0 1-1.928-.741 6.042 6.042 0 0 1-1.483-1.229 5.249 5.249 0 0 1-.963-1.614 5.334 5.334 0 0 1-.339-1.916m-1.148 12.8a1.385 1.385 0 0 1 .456-1.132 1.6 1.6 0 0 1 1.055-.378 1.638 1.638 0 0 1 1.028.378 1.348 1.348 0 0 1 .483 1.132v1.666a1.468 1.468 0 0 0 .351 1.093 1.284 1.284 0 0 0 .925.338h9.77a1.136 1.136 0 0 1 .938.386 1.314 1.314 0 0 1 0 1.7 1.136 1.136 0 0 1-.938.386H48.17a3.712 3.712 0 0 1-2.685-.978 3.775 3.775 0 0 1-1.015-2.847zm3.907-12.8a3.044 3.044 0 0 0 .99 2.278 3.721 3.721 0 0 0 1.094.689 3.656 3.656 0 0 0 2.71 0 3.708 3.708 0 0 0 1.094-.689A3.021 3.021 0 0 0 55 6.86a3.084 3.084 0 0 0 .257-1.26A3.009 3.009 0 0 0 55 4.361a3.157 3.157 0 0 0-.729-1.027 3.394 3.394 0 0 0-1.094-.69 3.832 3.832 0 0 0-2.71 0 3.394 3.394 0 0 0-1.094.69 3.2 3.2 0 0 0-.73 1.027 3.008 3.008 0 0 0-.26 1.236" transform="translate(-.627 -.01)" style="fill:#e4007f"/>
        </g>
    </g>
</svg>
