<svg xmlns="http://www.w3.org/2000/svg" width="20" height="20" viewBox="0 0 20 20">
  <defs>
    <style>
      .cls-1 {
        fill: none;
      }

      .cls-2 {
        fill: #222;
      }
    </style>
  </defs>
  <g id="youtube" transform="translate(-1470 -6874)">
    <rect id="사각형_3543" data-name="사각형 3543" class="cls-1" width="20" height="20" transform="translate(1470 6874)"/>
    <path id="패스_22341" data-name="패스 22341" class="cls-2" d="M880.413,583.3A2.112,2.112,0,0,0,879,581.745a53.345,53.345,0,0,0-12.507,0,2.114,2.114,0,0,0-1.415,1.555,27.019,27.019,0,0,0,0,8.467,2.112,2.112,0,0,0,1.415,1.554,53.31,53.31,0,0,0,12.507,0,2.111,2.111,0,0,0,1.415-1.554,26.912,26.912,0,0,0,0-8.467Zm-9.269,6.872v-5.277l4.158,2.638Z" transform="translate(607.255 6296.467)"/>
  </g>
</svg>
