<svg xmlns="http://www.w3.org/2000/svg" width="16" height="14" viewBox="0 0 16 14">
    <path data-name="패스 21370" d="M17.709 9.9h-3.753c.064-3.711.8-4.322 3.1-5.673a.553.553 0 0 0 .192-.763.561.561 0 0 0-.768-.191c-2.7 1.589-3.649 2.558-3.649 7.183v4.283a2.465 2.465 0 0 0 2.469 2.452h2.4a2.411 2.411 0 0 0 2.472-2.455v-2.383A2.4 2.4 0 0 0 17.709 9.9z" transform="translate(-12.828 -3.191)" style="fill:#ed234b"/>
    <path data-name="패스 21371" d="M6.893 9.9H3.14c.064-3.711.8-4.322 3.1-5.673a.553.553 0 0 0 .192-.763.561.561 0 0 0-.768-.191c-2.7 1.589-3.649 2.558-3.649 7.183v4.283a2.465 2.465 0 0 0 2.472 2.455h2.4a2.411 2.411 0 0 0 2.472-2.455v-2.386A2.4 2.4 0 0 0 6.893 9.9z" transform="translate(6.643 -3.191)" style="fill:#ed234b"/>
</svg>
