<svg xmlns="http://www.w3.org/2000/svg" width="32" height="30" viewBox="0 0 32 30">
    <defs>
        <clipPath id="fob9vib2ha">
            <path data-name="사각형 3015" style="fill:none" d="M0 0h32v30H0z"/>
        </clipPath>
    </defs>
    <g data-name="그룹 6922" style="clip-path:url(#fob9vib2ha)">
        <path data-name="패스 21721" d="M7.059 25.759a1 1 0 0 1-.968-1.034V6.792h23v17.933a1 1 0 0 1-.969 1.034zM20.474 6.792H4.146a.945.945 0 0 1-.961-.926v-1.34a.945.945 0 0 1 .961-.926h26.893a.945.945 0 0 1 .961.926v1.342a.946.946 0 0 1-.961.926z" style="fill:#ffeaf0"/>
        <path data-name="패스 21722" d="M12.276 3.942H1.711a.945.945 0 0 1-.961-.925V1.676A.945.945 0 0 1 1.711.75H28.6a.945.945 0 0 1 .961.926v1.34a.946.946 0 0 1-.961.925H18.038" style="stroke:#313131;stroke-linecap:round;stroke-miterlimit:10;stroke-width:1.5px;fill:none"/>
        <path data-name="패스 21723" d="M26.661 3.942v17.932a1 1 0 0 1-.969 1.034H4.627a1 1 0 0 1-.969-1.034V3.942" style="stroke:#313131;stroke-linecap:round;stroke-miterlimit:10;stroke-width:1.5px;fill:none"/>
        <path data-name="패스 21724" d="M7.733 16.6a.2.2 0 0 1-.144-.053.183.183 0 0 1-.057-.139V11.4a.181.181 0 0 1 .057-.139.188.188 0 0 1 .144-.055h3.621a.2.2 0 0 1 .144.055.186.186 0 0 1 .055.139v.615a.174.174 0 0 1-.055.13.2.2 0 0 1-.144.055H8.761v1.207h2.414a.2.2 0 0 1 .144.055.191.191 0 0 1 .056.139v.57a.173.173 0 0 1-.056.131.2.2 0 0 1-.144.053H8.763V15.6h2.654a.192.192 0 0 1 .144.055.187.187 0 0 1 .056.138v.607a.191.191 0 0 1-.056.139.2.2 0 0 1-.144.053z" style="fill:#313131"/>
        <path data-name="패스 21725" d="M12.653 16.6a.2.2 0 0 1-.144-.053.183.183 0 0 1-.057-.139V11.4a.181.181 0 0 1 .057-.139.188.188 0 0 1 .144-.055h.727a.239.239 0 0 1 .176.055.337.337 0 0 1 .071.084l2.135 3.21V11.4a.191.191 0 0 1 .192-.19h.817a.19.19 0 0 1 .144.055.179.179 0 0 1 .055.138v5a.191.191 0 0 1-.192.19h-.743a.221.221 0 0 1-.172-.058 1.926 1.926 0 0 0-.077-.081l-2.125-3.11v3.057a.186.186 0 0 1-.055.139.2.2 0 0 1-.144.053z" style="fill:#313131"/>
        <path data-name="패스 21726" d="M20.321 16.673a3.07 3.07 0 0 1-1.283-.243 1.843 1.843 0 0 1-.823-.709 2.234 2.234 0 0 1-.316-1.128c-.006-.219-.008-.456-.008-.707s0-.49.008-.717a2.138 2.138 0 0 1 .316-1.1 1.864 1.864 0 0 1 .83-.695 3.074 3.074 0 0 1 1.277-.243 3.316 3.316 0 0 1 1.038.146 2.456 2.456 0 0 1 .752.38 1.8 1.8 0 0 1 .464.511 1.133 1.133 0 0 1 .168.532.171.171 0 0 1-.048.119.168.168 0 0 1-.127.05h-1a.213.213 0 0 1-.123-.03.251.251 0 0 1-.076-.1 1.006 1.006 0 0 0-.511-.524 1.268 1.268 0 0 0-.544-.1 1.167 1.167 0 0 0-.8.254 1.114 1.114 0 0 0-.316.832q-.024.664 0 1.346a1.023 1.023 0 0 0 1.126 1.125 1.479 1.479 0 0 0 .588-.112.906.906 0 0 0 .415-.346 1.113 1.113 0 0 0 .152-.608v-.19h-.871a.185.185 0 0 1-.137-.056.189.189 0 0 1-.055-.136v-.491a.187.187 0 0 1 .055-.14.193.193 0 0 1 .137-.053h1.958a.19.19 0 0 1 .144.053.188.188 0 0 1 .056.14v.838a2.054 2.054 0 0 1-.3 1.132 1.913 1.913 0 0 1-.855.72 3.151 3.151 0 0 1-1.3.251" style="fill:#313131"/>
        <path data-name="선 97" transform="translate(17.218 23.32)" style="stroke:#313131;stroke-linecap:round;stroke-miterlimit:10;stroke-width:1.5px;fill:none" d="m0 0 3.576 5.93"/>
        <path data-name="선 98" transform="translate(9.525 23.275)" style="stroke:#313131;stroke-linecap:round;stroke-miterlimit:10;stroke-width:1.5px;fill:none" d="M3.576 0 0 5.93"/>
    </g>
</svg>
